<svg id="Layer_1" enable-background="new 0 0 256 256" height="512" viewBox="0 0 256 256" width="512" xmlns="http://www.w3.org/2000/svg"><g><g><path d="m43.991 71.809c-3.702 0-6.703 3.001-6.703 6.703v7.374c0 2.716 1.639 5.164 4.151 6.198 8.707 3.585 4.996 2.011 16.333 6.924l24.272 8.359h8.485v-20.745h9.48v-14.813c-.449 0-56.537 0-56.018 0z" fill="#f9cfcf"/></g><g><path d="m90.528 109.368h-8.485c-.222 0-.442-.037-.651-.109l-24.271-8.359c-.048-.017-.097-.036-.144-.056l-4.451-1.93c-4.843-2.102-4.843-2.102-8.507-3.606l-3.341-1.374c-3.274-1.348-5.39-4.507-5.39-8.048v-7.374c0-4.796 3.901-8.699 8.697-8.703h.003 56.021c1.104 0 2 .896 2 2v14.813c0 1.104-.896 2-2 2h-7.48v18.746c-.001 1.104-.896 2-2.001 2zm-8.15-4h6.15v-18.746c0-1.104.896-2 2-2h7.48v-10.813h-54.017c-2.594 0-4.704 2.11-4.704 4.703v7.374c0 1.913 1.144 3.62 2.913 4.349l3.338 1.373c3.701 1.52 3.701 1.52 8.58 3.637l4.378 1.899z" fill="#3762cc"/></g><g><path d="m104.13 84.998c-11.325 0-20.505-9.181-20.505-20.505v-7.237c0-11.325 9.181-20.505 20.505-20.505 11.325 0 20.505 9.181 20.505 20.505v7.237c0 11.324-9.18 20.505-20.505 20.505z" fill="#f9cfcf"/></g><g><path d="m104.13 86.998c-12.41 0-22.505-10.096-22.505-22.505v-7.237c0-12.41 10.096-22.505 22.505-22.505s22.505 10.096 22.505 22.505v7.237c0 12.409-10.095 22.505-22.505 22.505zm0-48.248c-10.204 0-18.505 8.301-18.505 18.505v7.237c0 10.204 8.301 18.505 18.505 18.505s18.505-8.301 18.505-18.505v-7.237c0-10.204-8.301-18.505-18.505-18.505z" fill="#3762cc"/></g><g><g><g><ellipse cx="95.48" cy="59.912" fill="#f9cfcf" rx="5.544" ry="7.214"/></g><g><path d="m95.48 69.126c-4.16 0-7.545-4.133-7.545-9.213 0-5.081 3.385-9.214 7.545-9.214 2.081 0 4.013.999 5.442 2.812.684.868.535 2.125-.333 2.809-.87.684-2.126.534-2.809-.333-.379-.481-1.182-1.288-2.301-1.288-1.921 0-3.545 2.388-3.545 5.214s1.624 5.213 3.545 5.213c.408 0 .809-.107 1.193-.319.968-.532 2.184-.18 2.717.787s.181 2.184-.787 2.717c-.981.541-2.031.815-3.122.815z" fill="#3762cc"/></g></g><g><path d="m112.203 64.67c-1.704 0-3.085-1.381-3.085-3.085v-3.701c0-1.704 1.381-3.085 3.085-3.085 1.704 0 3.085 1.381 3.085 3.085v3.701c0 1.704-1.381 3.085-3.085 3.085z" fill="#3762cc"/></g><g><path d="m118.324 76.232h-3.084c-1.104 0-2-.896-2-2s.896-2 2-2h3.084c1.104 0 2 .896 2 2s-.896 2-2 2z" fill="#3762cc"/></g></g><g><path d="m104.13 84.998h77.762v13.852l-77.762 8.518z" fill="#f9cfcf"/></g><g><path d="m104.13 109.368c-.49 0-.966-.18-1.335-.511-.423-.379-.665-.921-.665-1.489v-22.37c0-1.104.896-2 2-2h77.762c1.104 0 2 .896 2 2v13.852c0 1.021-.768 1.877-1.782 1.988l-77.762 8.518c-.073.008-.146.012-.218.012zm2-22.37v18.139l73.762-8.08v-10.059z" fill="#3762cc"/></g><g><path d="m140.163 105.368v-20.37h-36.033v22.37h34.033c1.104 0 2-.896 2-2z" fill="#6bdddd"/></g><g><path d="m138.163 109.368h-34.033c-1.104 0-2-.896-2-2v-22.37c0-1.104.896-2 2-2h36.033c1.104 0 2 .896 2 2v20.37c0 2.205-1.795 4-4 4zm-32.033-4h32.033v-18.37h-32.033z" fill="#3762cc"/></g><g><path d="m121.025 238.437-3.023 8.792v2.771c0 1.657 1.343 3 3 3h32.095c1.105 0 2-.895 2-2v-2.332c0-.719-.386-1.383-1.011-1.738l-14.926-8.492-9.788-12.915h-8.622z" fill="#e0ebfc"/></g><g><path d="m153.098 255h-32.095c-2.757 0-5-2.243-5-5v-2.771c0-.221.037-.441.108-.65l2.907-8.456-.267-12.559c-.012-.538.194-1.057.57-1.441s.892-.601 1.429-.601h8.622c.626 0 1.216.293 1.594.792l9.54 12.587 14.57 8.289c1.247.709 2.021 2.042 2.021 3.477v2.333c.001 2.206-1.794 4-3.999 4zm-33.095-7.437v2.437c0 .551.449 1 1 1h32.095v-2.333l-14.926-8.492c-.235-.134-.441-.314-.604-.53l-9.188-12.123h-5.585l.231 10.872c.005.235-.032.47-.108.693z" fill="#3762cc"/></g><g><path d="m126.218 147.623h-26.208v19.097l13.826 70.104c.185.937 1.007 1.613 1.962 1.613h23.367z" fill="#4671c6"/></g><g><path d="m139.166 240.437h-23.367c-1.905 0-3.556-1.356-3.924-3.226l-13.827-70.104c-.025-.127-.038-.257-.038-.387v-19.097c0-1.104.896-2 2-2h26.208c.996 0 1.839.732 1.98 1.718l12.948 90.814c.082.574-.089 1.155-.469 1.593s-.932.689-1.511.689zm-37.156-73.912 13.789 69.912h21.062l-12.377-86.814h-22.474z" fill="#3762cc"/></g><g><path d="m72.805 238.437-5.081 8.556c-.092.155-.14.331-.14.511v4.496c0 .552.448 1 1 1h23.28c.552 0 1-.448 1-1v-4.333c0-.107-.017-.214-.051-.316l-2.971-8.913v-9.343h-17.037z" fill="#e0ebfc"/></g><g><path d="m91.864 255h-23.28c-1.654 0-3-1.346-3-3v-4.496c0-.54.146-1.07.421-1.533l4.799-8.083v-8.794c0-1.104.896-2 2-2h17.036c1.104 0 2 .896 2 2v9.018l2.869 8.606c.102.304.154.624.154.948v4.334c.001 1.654-1.345 3-2.999 3zm-22.28-4h21.279v-3.171l-2.92-8.76c-.068-.204-.103-.417-.103-.632v-7.343h-13.035v7.343c0 .359-.097.712-.28 1.021l-4.94 8.321v3.221zm21.331-3.017s0 .001.001.002zm-18.11-9.546h.01z" fill="#3762cc"/></g><g><path d="m111.654 84.998h-15.048c-.859 0-1.696.089-2.514.232h-.061l-25.903-8.506-7.392 23.306 21.308 7.339v40.255h44.172v-48.064c0-8.042-6.52-14.562-14.562-14.562z" fill="#6bdddd"/></g><g><path d="m82.044 147.623h26.208v19.097l-13.826 70.104c-.185.937-1.007 1.613-1.962 1.613h-21.063c-1.217 0-2.152-1.078-1.98-2.282z" fill="#4671c6"/></g><g><path d="m217.064 81.264h-124.75v-3.297h124.749c.911 0 1.649.738 1.649 1.649 0 .91-.738 1.648-1.648 1.648z" fill="#4671c6"/></g><g><path d="m92.463 240.437h-21.062c-1.16 0-2.261-.502-3.021-1.378-.761-.876-1.103-2.038-.939-3.187l12.623-88.532c.141-.986.984-1.718 1.98-1.718h26.208c1.104 0 2 .896 2 2v19.097c0 .13-.013.26-.038.387l-13.826 70.104c-.369 1.87-2.02 3.227-3.925 3.227zm-8.685-90.814-12.377 86.814h21.062l13.789-69.913v-16.902h-22.474z" fill="#3762cc"/></g><g><path d="m126.216 149.623h-44.173c-1.104 0-2-.896-2-2v-38.829l-19.958-6.874c-1.026-.354-1.583-1.461-1.255-2.496l7.392-23.306c.161-.509.52-.933.995-1.176.476-.244 1.029-.286 1.536-.12l25.461 8.361c.833-.125 1.621-.186 2.393-.186h15.048c9.132 0 16.562 7.43 16.562 16.563v48.062c-.001 1.105-.897 2.001-2.001 2.001zm-42.173-4h40.172v-46.062c0-6.927-5.635-12.563-12.562-12.563h-15.047c-.681 0-1.391.066-2.17.202-.321.057-.717.032-1.028-.07l-23.984-7.876-6.19 19.52 19.462 6.703c.807.278 1.349 1.038 1.349 1.891v38.255z" fill="#3762cc"/></g><g><path d="m153.791 143.956c-.615 0-1.221-.282-1.613-.816l-45.538-61.991c-.518-.705-.518-1.664 0-2.368l45.538-61.991c.654-.891 1.905-1.082 2.796-.428.89.654 1.082 1.906.428 2.796l-44.668 60.807 44.668 60.807c.654.89.462 2.142-.428 2.796-.357.262-.772.388-1.183.388z" fill="#3762cc"/></g><g><path d="m100.008 71.809 4.328-1.467h12.838c1.105 0 2 .895 2 2v15.247c0 1.105-.895 2-2 2h-12.426l-4.74-2.966z" fill="#4671c6"/></g><g><g><path d="m150.234 156.93c-.303 0-.61-.039-.917-.12-1.899-.505-3.029-2.453-2.524-4.352l1.826-6.871c2.27-8.539 8.561-15.495 16.828-18.609l10.6-3.993c6.122-2.306 10.235-8.251 10.235-14.793v-56.453c0-6.542-4.113-12.487-10.235-14.793l-10.6-3.993c-8.267-3.114-14.558-10.071-16.828-18.609l-1.826-6.871c-.505-1.899.625-3.847 2.524-4.352 1.898-.504 3.848.625 4.352 2.524l1.826 6.871c1.681 6.322 6.338 11.473 12.46 13.779l10.6 3.993c8.877 3.344 14.842 11.965 14.842 21.451v56.452c0 9.486-5.965 18.107-14.842 21.451l-10.6 3.993c-6.121 2.306-10.779 7.457-12.46 13.779l-1.826 6.871c-.422 1.593-1.861 2.645-3.435 2.645z" fill="#e0ebfc"/></g></g><g><g><path d="m150.234 158.93c-.482 0-.963-.063-1.431-.188-1.435-.381-2.635-1.298-3.379-2.583s-.945-2.781-.563-4.216l1.826-6.872c2.436-9.162 9.186-16.626 18.056-19.967l10.6-3.993c5.347-2.015 8.94-7.208 8.94-12.921v-56.451c0-5.714-3.593-10.906-8.94-12.921l-10.6-3.993c-8.87-3.342-15.62-10.806-18.055-19.967l-1.827-6.872c-.787-2.961.981-6.011 3.943-6.798 1.434-.382 2.931-.182 4.216.563s2.202 1.945 2.583 3.38l1.826 6.871c1.515 5.699 5.714 10.342 11.232 12.421l10.6 3.993c9.652 3.636 16.137 13.009 16.137 23.323v56.452c0 10.314-6.485 19.687-16.137 23.323l-10.6 3.993c-5.519 2.079-9.717 6.723-11.232 12.421l-1.827 6.871c-.645 2.432-2.852 4.131-5.368 4.131zm0-153.93c-.134 0-.269.018-.402.053-.402.106-.738.364-.947.724s-.265.779-.158 1.182l1.827 6.872c2.104 7.915 7.936 14.364 15.6 17.251l10.6 3.993c6.896 2.598 11.53 9.295 11.53 16.664v56.452c0 7.369-4.633 14.066-11.53 16.665l-10.6 3.993c-7.664 2.887-13.496 9.335-15.6 17.251l-1.826 6.872c-.107.402-.051.822.158 1.182.208.36.545.617.947.724.823.22 1.69-.293 1.905-1.105l1.827-6.872c1.846-6.945 6.963-12.603 13.688-15.137l10.6-3.993c8.103-3.052 13.547-10.921 13.547-19.58v-56.452c0-8.659-5.444-16.527-13.547-19.58l-10.6-3.993c-6.725-2.533-11.841-8.192-13.688-15.137l-1.827-6.871c-.106-.402-.364-.738-.724-.947-.242-.139-.509-.211-.78-.211z" fill="#3762cc"/></g></g><g><path d="m183.892 81.264h14.685c1.105 0 2 .895 2 2v16.172c0 1.105-.895 2-2 2h-14.685c-1.105 0-2-.895-2-2v-16.172c0-1.105.895-2 2-2z" fill="#4671c6"/></g><g><path d="m198.577 103.436h-14.685c-2.206 0-4-1.794-4-4v-16.172c0-2.206 1.794-4 4-4h14.685c2.206 0 4 1.794 4 4v16.172c0 2.205-1.795 4-4 4zm-14.685-20.172h-.002l.002 16.172h14.685v-16.172z" fill="#3762cc"/></g><g><path d="m117.174 91.588h-12.426c-.375 0-.743-.105-1.061-.305l-4.74-2.966c-.584-.366-.939-1.006-.939-1.695v-14.813c0-.857.546-1.619 1.358-1.894l4.328-1.467c.207-.07.424-.106.642-.106h12.838c2.206 0 4 1.794 4 4v15.247c0 2.205-1.795 3.999-4 3.999zm-11.852-4h11.852v-15.247h-12.508l-2.658.901v12.272z" fill="#3762cc"/></g><g><path d="m82.043 109.368c-1.104 0-2-.896-2-2v-7.807c0-1.104.896-2 2-2s2 .896 2 2v7.807c0 1.104-.895 2-2 2z" fill="#3762cc"/></g><g><path d="m100.008 86.622v-14.813h-41.595v14.813h31.06z" fill="#f9cfcf"/></g><g><path d="m100.008 88.622h-41.595c-1.104 0-2-.896-2-2s.896-2 2-2h39.596v-10.813h-39.596c-1.104 0-2-.896-2-2s.896-2 2-2h41.596c1.104 0 2 .896 2 2v14.813c-.001 1.105-.896 2-2.001 2z" fill="#3762cc"/></g></g></svg>