<svg height="504pt" viewBox="-106 0 504 504" width="504pt" xmlns="http://www.w3.org/2000/svg"><path d="m116 111.527344-16.007812 16.007812h.015624l-16.007812-16.007812v-56h32zm0 0" fill="#ed5565"/><path d="m100 172c-2.207031 0-4-1.792969-4-4v-112.480469c0-2.207031 1.792969-4 4-4s4 1.792969 4 4v112.480469c0 2.207031-1.792969 4-4 4zm0 0" fill="#ffd2a6"/><path d="m75.960938 135.550781-16.007813 16.007813h.015625l-16.007812-16.007813v-56h32zm0 0" fill="#ed5565"/><path d="m59.960938 196.023438c-2.207032 0-4-1.792969-4-4v-112.480469c0-2.207031 1.792968-4 4-4 2.207031 0 4 1.792969 4 4v112.480469c0 2.207031-1.792969 4-4 4zm0 0" fill="#ffd2a6"/><path d="m44.015625 468c-1.023437 0-2.046875-.390625-2.832031-1.167969-1.679688-1.679687-41.183594-42.375-41.183594-146.832031s39.503906-145.152344 41.183594-146.832031c1.570312-1.558594 4.097656-1.550781 5.648437 0 1.558594 1.550781 1.566407 4.089843.015625 5.648437-.390625.390625-38.847656 40.398438-38.847656 141.175782 0 101.167968 38.457031 140.785156 38.839844 141.167968 1.558594 1.558594 1.558594 4.097656 0 5.65625-.777344.792969-1.800782 1.183594-2.824219 1.183594zm0 0" fill="#844747"/><path d="m192.007812 499.992188c-2.207031 0-4-1.792969-4-4v-487.984376c0-2.207031 1.792969-4 4-4 2.207032 0 4 1.792969 4 4v487.984376c0 2.207031-1.792968 4-4 4zm0 0" fill="#e6e9ed"/><path d="m188 488h12v10h-12zm0 0" fill="#656d78"/><path d="m188 6h12v10h-12zm0 0" fill="#656d78"/><path d="m235.769531 400c5.671875-7.519531 11.191407-15.441406 16.230469-24 12.078125-20.640625 22.558594-48.398438 23.839844-80.320312l16.160156-6.160157c-.800781 110.800781-92 142.71875-92 198.480469h-12c0-12 3.28125-22.878906 8.558594-33.28125 6.640625-13.359375 16.5625-25.917969 26.800781-38.796875 4.082031-5.121094 8.242187-10.402344 12.410156-15.921875zm0 0" fill="#965353"/><path d="m292 289.519531-16.160156 6.160157c-5.046875-6-9.046875-12.878907-11.769532-20.398438-2.628906-7.28125-4.070312-15.121094-4.070312-23.28125s1.441406-16 4.160156-23.28125c2.640625-7.359375 6.488282-14.078125 11.359375-20l.328125-.398438 16.160156 6.167969c-9.839843 9.441407-16 22.800781-16 37.511719s6.152344 28.078125 15.992188 37.519531zm0 0" fill="#ed5565"/><path d="m275.839844 208.320312c-1.28125-33.601562-10.808594-58.960937-23.839844-80.320312-8.800781-14.800781-18.960938-27.679688-28.640625-39.921875-10.230469-12.871094-20.160156-25.4375-26.800781-38.796875-5.277344-10.410156-8.558594-21.28125-8.558594-33.28125h12c0 55.769531 91.199219 87.679688 92 198.488281zm0 0" fill="#965353"/><g fill="#da4453"><path d="m260.175781 248c-.078125 1.328125-.175781 2.65625-.175781 4s.105469 2.671875.167969 4h16.039062c-.101562-1.328125-.207031-2.648438-.207031-4s.113281-2.671875.207031-4zm0 0"/><path d="m277.976562 266-15.105468 5.464844c.386718 1.277344.753906 2.566406 1.199218 3.824218.457032 1.261719 1 2.480469 1.53125 3.703126l15.09375-5.457032c-1.09375-2.414062-1.992187-4.933594-2.71875-7.535156zm0 0"/><path d="m265.871094 224.984375c-.542969 1.261719-1.246094 2.429687-1.71875 3.734375-.457032 1.21875-.824219 2.472656-1.199219 3.722656l15.046875 5.496094c.726562-2.59375 1.625-5.113281 2.734375-7.523438zm0 0"/></g><path d="m116 164h-80c-2.207031 0-4 1.792969-4 4v304c0 .574219.136719 1.128906.359375 1.625.359375 1.621094 1.074219 3.085938 2.410156 4.0625 1.40625 1.015625 3.246094 1.527344 5.476563 1.527344 16.257812 0 76-35.941406 79.433594-53.640625.207031-.484375.328124-1.015625.328124-1.574219v-256c-.007812-2.207031-1.800781-4-4.007812-4zm0 0" fill="#965353"/><path d="m200 6c0 3.3125-2.6875 6-6 6s-6-2.6875-6-6 2.6875-6 6-6 6 2.6875 6 6zm0 0" fill="#656d78"/><path d="m200 498c0 3.3125-2.6875 6-6 6s-6-2.6875-6-6 2.6875-6 6-6 6 2.6875 6 6zm0 0" fill="#656d78"/></svg>