<svg id="Capa_1" enable-background="new 0 0 512 512" height="512" viewBox="0 0 512 512" width="512" xmlns="http://www.w3.org/2000/svg"><g><g><path d="m285.378 63.935h-190.143v-55.299c0-4.77 3.867-8.636 8.636-8.636h172.871c4.77 0 8.636 3.867 8.636 8.636z" fill="#edeaed"/><g><g><g><path d="m469.295 443.092c-1.159-13.017-12.088-23.223-25.406-23.223h-25.514v74.146h48.663c14.091 0 25.514-11.423 25.514-25.514 0-13.329-10.223-24.265-23.257-25.409z" fill="#badd93"/></g><g><path d="m42.705 443.092c1.159-13.017 12.088-23.223 25.406-23.223h25.514v74.146h-48.663c-14.091 0-25.514-11.423-25.514-25.514 0-13.329 10.223-24.265 23.257-25.409z" fill="#99ce68"/></g></g><g><g><path d="m227.027 29.852h-135.055c-8.2 0-14.848 6.648-14.848 14.848v458.385h164.73v-458.385c.001-8.194-6.636-14.837-14.827-14.848z" fill="#c1bcc4"/><path d="m288.64 29.852h-65.07c8.2 0 14.848 6.648 14.848 14.848v458.385h65.07v-458.385c0-8.201-6.647-14.848-14.848-14.848z" fill="#a39ba3"/><g><path d="m264.29 99.115h-147.967c-3.08 0-5.578-2.497-5.578-5.578v-16.938c0-3.08 2.497-5.578 5.578-5.578h147.967c3.08 0 5.578 2.497 5.578 5.578v16.938c0 3.081-2.498 5.578-5.578 5.578z" fill="#c9e0fd"/><path d="m264.29 166.989h-147.967c-3.08 0-5.578-2.497-5.578-5.578v-16.938c0-3.08 2.497-5.578 5.578-5.578h147.967c3.08 0 5.578 2.497 5.578 5.578v16.938c0 3.081-2.498 5.578-5.578 5.578z" fill="#c9e0fd"/><path d="m264.29 99.115c3.08 0 5.578-2.497 5.578-5.578v-16.938c0-3.081-2.497-5.578-5.578-5.578h-25.871v28.093h25.871z" fill="#bcd6f9"/><path d="m264.29 166.989c3.08 0 5.578-2.497 5.578-5.578v-16.938c0-3.08-2.497-5.578-5.578-5.578h-25.871v28.093h25.871z" fill="#bcd6f9"/><g fill="#c9e0fd"><path d="m264.29 234.863h-147.967c-3.08 0-5.578-2.497-5.578-5.578v-16.938c0-3.08 2.497-5.578 5.578-5.578h147.967c3.08 0 5.578 2.497 5.578 5.578v16.938c0 3.081-2.498 5.578-5.578 5.578z"/><path d="m264.29 302.737h-147.967c-3.08 0-5.578-2.497-5.578-5.578v-16.938c0-3.08 2.497-5.578 5.578-5.578h147.967c3.08 0 5.578 2.497 5.578 5.578v16.938c0 3.081-2.498 5.578-5.578 5.578z"/><path d="m264.29 370.611h-147.967c-3.08 0-5.578-2.497-5.578-5.578v-16.938c0-3.08 2.497-5.578 5.578-5.578h147.967c3.08 0 5.578 2.497 5.578 5.578v16.938c0 3.081-2.498 5.578-5.578 5.578z"/><path d="m264.29 438.485h-147.967c-3.08 0-5.578-2.497-5.578-5.578v-16.937c0-3.08 2.497-5.578 5.578-5.578h147.967c3.08 0 5.578 2.497 5.578 5.578v16.938c0 3.08-2.498 5.577-5.578 5.577z"/></g></g><path d="m357.516 194.599h-138.593c-8.2 0-14.848 6.648-14.848 14.848v293.638h168.29v-293.638c-.001-8.2-6.649-14.848-14.849-14.848z" fill="#f7f4f7"/><path d="m420.028 194.599h-65.218c8.2 0 14.848 6.648 14.848 14.848v293.638h65.218v-293.638c0-8.2-6.648-14.848-14.848-14.848z" fill="#edeaed"/><g><g><path d="m264.362 269.363h-21.479c-2.778 0-5.03-2.252-5.03-5.03v-17.592c0-2.778 2.252-5.03 5.03-5.03h21.479c2.778 0 5.03 2.252 5.03 5.03v17.592c0 2.778-2.252 5.03-5.03 5.03z" fill="#c9e0fd"/><path d="m330.215 269.363h-21.479c-2.778 0-5.03-2.252-5.03-5.03v-17.592c0-2.778 2.252-5.03 5.03-5.03h21.479c2.778 0 5.03 2.252 5.03 5.03v17.592c0 2.778-2.252 5.03-5.03 5.03z" fill="#c9e0fd"/><path d="m396.24 269.363h-21.48c-2.778 0-5.03-2.252-5.03-5.03v-17.592c0-2.778 2.252-5.03 5.03-5.03h21.479c2.778 0 5.03 2.252 5.03 5.03v17.592c.001 2.778-2.251 5.03-5.029 5.03z" fill="#bcd6f9"/></g><g><path d="m264.362 344.616h-21.479c-2.778 0-5.03-2.252-5.03-5.03v-17.592c0-2.778 2.252-5.03 5.03-5.03h21.479c2.778 0 5.03 2.252 5.03 5.03v17.592c0 2.778-2.252 5.03-5.03 5.03z" fill="#c9e0fd"/><path d="m330.215 344.616h-21.479c-2.778 0-5.03-2.252-5.03-5.03v-17.592c0-2.778 2.252-5.03 5.03-5.03h21.479c2.778 0 5.03 2.252 5.03 5.03v17.592c0 2.778-2.252 5.03-5.03 5.03z" fill="#c9e0fd"/><path d="m396.24 344.616h-21.48c-2.778 0-5.03-2.252-5.03-5.03v-17.592c0-2.778 2.252-5.03 5.03-5.03h21.479c2.778 0 5.03 2.252 5.03 5.03v17.592c.001 2.778-2.251 5.03-5.029 5.03z" fill="#bcd6f9"/></g><path d="m291.604 392.217h-48.722c-2.778 0-5.03 2.252-5.03 5.03v17.592c0 2.778 2.252 5.03 5.03 5.03h48.722c2.778 0 5.03-2.252 5.03-5.03v-17.592c0-2.778-2.252-5.03-5.03-5.03z" fill="#c9e0fd"/></g></g><path d="m399.036 503.085h-70.824v-104.008c0-3.789 3.071-6.86 6.86-6.86h57.104c3.789 0 6.86 3.071 6.86 6.86z" fill="#c9e0fd"/><path d="m399.036 399.077c0-3.789-3.071-6.86-6.86-6.86h-22.518v110.868h29.378z" fill="#bcd6f9"/><path d="m18.239 475.976c-9.948 0-18.012 8.064-18.012 18.012s8.064 18.012 18.012 18.012h412.194c9.948 0 18.012-8.064 18.012-18.012v-14.869l-1.89-3.143z" fill="#efc984"/><path d="m493.761 475.976h-47.206v18.012c0 9.948-8.064 18.012-18.012 18.012h65.218c9.948 0 18.012-8.064 18.012-18.012 0-9.948-8.065-18.012-18.012-18.012z" fill="#e8ae4d"/></g></g></g></g></svg>