<?xml version="1.0"?>
<svg xmlns="http://www.w3.org/2000/svg" xmlns:xlink="http://www.w3.org/1999/xlink" xmlns:svgjs="http://svgjs.com/svgjs" version="1.1" width="512" height="512" x="0" y="0" viewBox="0 0 512 512" style="enable-background:new 0 0 512 512" xml:space="preserve" class=""><g><g xmlns="http://www.w3.org/2000/svg"><g><g><g><path d="m361.388 0h-305.039c-11.002 0-19.92 8.901-19.92 19.881v407.546c0 10.98 8.919 19.881 19.92 19.881h213.587l111.373-111.151v-316.276c0-10.98-8.919-19.881-19.921-19.881z" fill="#f3ebdb" data-original="#fff7e8" style="" class=""/><path d="m361.388 0h-40.594c11.002 0 19.92 8.901 19.92 19.88v345.977l40.594-29.701v-316.276c.001-10.979-8.918-19.88-19.92-19.88z" fill="#ffc75c" data-original="#fff1d6" style="" class=""/><path d="m289.856 336.157h91.452l-111.372 111.151v-91.27c0-10.98 8.919-19.881 19.92-19.881z" fill="#e7b85f" data-original="#ffd88f" style="" class=""/></g></g><g><path d="m74.516 40.533h266.148v91.512h-266.148z" fill="#4a4730" data-original="#ff7893" style="" class=""/><g fill="#ffd88f"><path d="m94.436 197.213h226.307c4.204 0 7.611-3.408 7.611-7.611 0-4.204-3.408-7.611-7.611-7.611h-226.307c-4.204 0-7.611 3.408-7.611 7.611s3.408 7.611 7.611 7.611z" fill="#e7b85f" data-original="#ffd88f" style="" class=""/><path d="m320.744 230.69h-226.308c-4.204 0-7.611 3.408-7.611 7.611 0 4.204 3.408 7.611 7.611 7.611h226.307c4.204 0 7.611-3.408 7.611-7.611.001-4.203-3.407-7.611-7.61-7.611z" fill="#e7b85f" data-original="#ffd88f" style="" class=""/><path d="m320.744 279.39h-226.308c-4.204 0-7.611 3.408-7.611 7.611s3.408 7.611 7.611 7.611h226.307c4.204 0 7.611-3.408 7.611-7.611s-3.407-7.611-7.61-7.611z" fill="#e7b85f" data-original="#ffd88f" style="" class=""/><path d="m221.142 328.089h-126.706c-4.204 0-7.611 3.408-7.611 7.611 0 4.204 3.408 7.611 7.611 7.611h126.706c4.204 0 7.611-3.408 7.611-7.611.001-4.203-3.407-7.611-7.611-7.611z" fill="#e7b85f" data-original="#ffd88f" style="" class=""/><path d="m221.142 376.789h-126.706c-4.204 0-7.611 3.408-7.611 7.611 0 4.204 3.408 7.611 7.611 7.611h126.706c4.204 0 7.611-3.408 7.611-7.611.001-4.203-3.407-7.611-7.611-7.611z" fill="#e7b85f" data-original="#ffd88f" style="" class=""/></g></g></g><g><path d="m330.857 454.072c-3.97-1.381-8.309.717-9.69 4.687l-15.008 43.126c-1.382 3.97.717 8.309 4.687 9.69.828.288 1.672.425 2.502.425 3.149 0 6.095-1.97 7.188-5.112l15.008-43.126c1.381-3.97-.717-8.309-4.687-9.69z" fill="#b5e8e0" data-original="#b5e8e0" style="" class=""/><path d="m319.723 486.109-.01-.004c-15.965-5.551-24.405-22.995-18.85-38.958l89.503-258.384 57.813 20.101-89.509 258.4c-5.553 15.957-22.989 24.394-38.947 18.845z" fill="#59a1a5" data-original="#59a1a5" style="" class=""/><path d="m390.365 188.763-4.364 12.597 21.582 7.504-89.509 258.401c-1.786 5.133-4.807 9.482-8.608 12.844 2.906 2.577 6.349 4.643 10.245 5.997l.01.004c15.959 5.549 33.394-2.888 38.947-18.845l89.509-258.401z" fill="#419296" data-original="#419296" style="" class=""/><path d="m418.542 342.165c-8.049-2.799-12.305-11.59-9.505-19.636l31.454-90.386-57.833-20.107c-8.049-2.799-12.305-11.59-9.505-19.636s11.595-12.299 19.645-9.501l72.408 25.175c8.049 2.799 12.305 11.59 9.505 19.636l-36.524 104.954c-2.8 8.046-11.596 12.3-19.645 9.501z" fill="#b5e8e0" data-original="#b5e8e0" style="" class=""/><path d="m438.567 198.813-33.684-11.711 20.033-57.566c3.235-9.297 13.394-14.212 22.692-10.98l.006.002c9.302 3.234 14.22 13.398 10.983 22.699z" fill="#59a1a5" data-original="#59a1a5" style="" class=""/></g></g></g></svg>
