<svg height="511pt" viewBox="0 0 511.98258 511" width="511pt" xmlns="http://www.w3.org/2000/svg"><path d="m451.742188 91.53125-28.074219-28.421875c-101.519531-87.785156-253.597657-82.265625-348.484375 12.648437-94.886719 94.910157-100.371094 246.988282-12.5625 348.488282l28.511718 28.070312c101.695313 85.476563 251.871094 78.964844 345.785157-14.992187 93.910156-93.960938 100.347656-244.140625 14.824219-345.792969zm0 0" fill="#9fc9d3"/><path d="m430.113281 228.007812v-.089843l-27.808593-70.179688c-39.796876-59.109375-111.222657-88.5-181.097657-74.515625-69.871093 13.984375-124.488281 68.601563-138.472656 138.472656-13.984375 69.871094 15.410156 141.300782 74.519531 181.097657l70.179688 27.894531c9.425781 1.527344 18.960937 2.296875 28.511718 2.296875 97.492188-.035156 176.515626-79.058594 176.550782-176.550781.015625-9.527344-.78125-19.035156-2.382813-28.425782zm-61.527343 50.757813c-9.171876 45.539063-44.765626 81.136719-90.308594 90.304687l-40.164063.707032c-58.058593-9.121094-99.84375-60.632813-96.792969-119.324219 3.050782-58.695313 49.953126-105.597656 108.644532-108.648437 58.691406-3.050782 110.207031 38.734374 119.328125 96.796874zm0 0" fill="#4482c3"/><path d="m255.945312 141.671875c-59.867187.0625-109.628906 46.132813-114.292968 105.816406-4.664063 59.683594 37.332031 112.925781 96.460937 122.289063l40.164063-.707032c45.542968-9.167968 81.136718-44.765624 90.308594-90.304687l.707031-40.164063c-8.839844-55.769531-56.882813-96.851562-113.347657-96.929687zm0 158.898437c-24.378906 0-44.136718-19.761718-44.136718-44.136718 0-24.378906 19.757812-44.140625 44.136718-44.140625 24.375 0 44.136719 19.761719 44.136719 44.140625 0 24.375-19.761719 44.136718-44.136719 44.136718zm0 0" fill="#e64c3c"/><g fill="#f0c419"><path d="m300.082031 256.433594c0 24.375-19.761719 44.136718-44.136719 44.136718-24.378906 0-44.136718-19.761718-44.136718-44.136718 0-24.378906 19.757812-44.140625 44.136718-44.140625 24.375 0 44.136719 19.761719 44.136719 44.140625zm0 0"/><path d="m41.300781 79.246094-38.707031-38.726563c-1.25-1.269531-1.617188-3.160156-.929688-4.804687.6875-1.640625 2.292969-2.707032 4.070313-2.710938l22.292969-.085937c2.4375 0 4.410156-1.976563 4.410156-4.414063l.089844-22.296875c.011718-1.773437 1.082031-3.367187 2.71875-4.050781 1.632812-.679688 3.519531-.316406 4.785156.925781l38.726562 38.714844c1.34375 1.339844 2.207032 3.082031 2.460938 4.960937l5.652344 40.609376-40.609375-5.640626c-1.878907-.265624-3.621094-1.136718-4.960938-2.480468zm0 0"/><path d="m511.785156 506.3125c.421875 1.675781-.066406 3.449219-1.289062 4.671875-1.21875 1.222656-2.992188 1.710937-4.667969 1.289063l-35.699219-9.410157-22.800781-6.03125c-1.648437-.449219-2.929687-1.75-3.355469-3.40625-.425781-1.652343.070313-3.410156 1.296875-4.597656l43.070313-43.070313c1.1875-1.226562 2.945312-1.722656 4.601562-1.296874 1.65625.425781 2.953125 1.703124 3.40625 3.351562l6.027344 22.804688zm0 0"/></g><path d="m237.582031 225.648438c60.652344-60.820313 126.308594-116.441407 196.273438-166.265626 2.734375-1.753906 4.285156-4.871093 4.03125-8.109374-.25-3.238282-2.257813-6.078126-5.230469-7.394532-2.96875-1.3125-6.421875-.886718-8.988281 1.105469-70.785157 50.402344-137.207031 106.664063-198.566407 168.191406l-131.964843-132.035156c-3.460938-3.34375-8.96875-3.296875-12.375.109375-3.402344 3.40625-3.453125 8.910156-.105469 12.375l132.105469 132.113281c-57.511719 58.882813-110.671875 121.863281-159.066407 188.441407l-7.945312 8.546874c-2.832031 2.40625-3.851562 6.328126-2.554688 9.808594 1.300782 3.484375 4.640626 5.78125 8.355469 5.746094 2.472657 0 4.835938-1.027344 6.523438-2.835938l8.960937-9.636718c.230469-.257813.449219-.53125.660156-.8125 47.921876-65.992188 100.578126-128.417969 157.546876-186.777344l49.433593 49.4375 6.796875 6.882812c1.695313 1.6875 3.984375 2.640626 6.375 2.648438 3.640625-.027344 6.890625-2.292969 8.179688-5.695312 1.292968-3.40625.359375-7.253907-2.34375-9.691407zm0 0" fill="#35495e"/><path d="m472.546875 460.550781-152.804687-152.804687c-2.214844-2.292969-5.5-3.214844-8.585938-2.40625s-5.496094 3.21875-6.304688 6.304687c-.808593 3.085938.113282 6.367188 2.40625 8.585938l152.808594 152.804687c3.460938 3.34375 8.96875 3.296875 12.375-.109375 3.402344-3.402343 3.453125-8.910156.105469-12.375zm0 0" fill="#35495e"/><path d="m498.367188 36.261719c-10.390626 3.609375-19.792969 9.59375-27.460938 17.480469-10.859375 10.855468-34.339844 60.210937-33.191406 136.226562 1.265625 34.363281-18.425782 66.066406-49.789063 80.164062l-2.914062 1.234376c-22.949219 10.160156-51.648438 22.785156-71.503907 42.648437-19.851562 19.859375-32.570312 48.550781-42.636718 71.597656l-1.234375 2.828125c-14.027344 31.4375-45.773438 51.171875-80.171875 49.839844-76.007813-1.058594-125.351563 22.332031-136.21875 33.191406-7.945313 7.738282-13.960938 17.230469-17.566406 27.71875-2.75 9.53125-12.625 15.101563-22.207032 12.527344-9.578125-2.574219-15.328125-12.347656-12.925781-21.972656 5.164063-16.675782 14.417969-31.789063 26.921875-43.972656 18.363281-18.359376 76.722656-45.117188 162.523438-43.878907 19.777343 1.148438 38.214843-10.015625 46.355468-28.074219l1.234375-2.824218c10.683594-24.453125 25.425781-57.917969 50.140625-82.636719 24.71875-24.714844 58.261719-39.464844 82.726563-50.234375l2.824219-1.238281c18.039062-8.160157 29.195312-26.585938 28.070312-46.351563-1.234375-85.8125 25.511719-144.171875 43.785156-162.429687 12.210938-12.523438 27.351563-21.808594 44.050782-27.019531 9.726562-2.539063 19.671874 3.292968 22.210937 13.019531 2.535156 9.730469-3.292969 19.671875-13.023437 22.210937zm0 0" fill="#805333"/></svg>