<svg viewBox="0 0 512 512" xmlns="http://www.w3.org/2000/svg"><path d="m388.953125 7.5h-326.652344c-30.265625 0-54.800781 24.535156-54.800781 54.800781v387.398438c0 30.265625 24.535156 54.800781 54.800781 54.800781h387.398438c30.265625 0 54.800781-24.535156 54.800781-54.800781v-326.652344c0-17.9375-7.125-35.140625-19.808594-47.824219l-47.914062-47.914062c-12.683594-12.683594-29.886719-19.808594-47.824219-19.808594zm0 0" fill="#9ff6ff"/><path d="m141.953125 449.699219v-387.398438c0-30.265625 24.535156-54.800781 54.800781-54.800781h-134.453125c-30.265625 0-54.800781 24.535156-54.800781 54.800781v387.398438c0 30.265625 24.535156 54.800781 54.800781 54.800781h134.453125c-30.269531 0-54.800781-24.535156-54.800781-54.800781zm0 0" fill="#7de7ff"/><path d="m142.769531 169.167969h226.457031c21.269532 0 38.511719-17.242188 38.511719-38.511719v-120.476562c-6.054687-1.753907-12.371093-2.679688-18.785156-2.679688h-284.691406v123.15625c0 21.269531 17.242187 38.511719 38.507812 38.511719zm0 0" fill="#d8d7da"/><path d="m328.257812 131.9375c-15.671874 0-28.378906-12.703125-28.378906-28.375v-30.457031c0-15.671875 12.707032-28.375 28.378906-28.375 15.671876 0 28.375 12.703125 28.375 28.375v30.457031c0 15.671875-12.703124 28.375-28.375 28.375zm0 0" fill="#898890"/><path d="m397.433594 440.996094h-287.765625c-19.628907 0-35.539063-15.910156-35.539063-35.535156v-143.003907c0-19.628906 15.910156-35.539062 35.539063-35.539062h287.765625c19.628906 0 35.539062 15.910156 35.539062 35.539062v143.003907c0 19.625-15.910156 35.535156-35.539062 35.535156zm0 0" fill="#fff"/><path d="m109.667969 226.917969c-19.628907 0-35.539063 15.910156-35.539063 35.539062v143.003907c0 19.625 15.910156 35.535156 35.539063 35.535156h32.28125v-214.078125zm0 0" fill="#ffeb99"/><path d="m179.640625 7.5h-75.378906v123.15625c0 21.269531 17.242187 38.511719 38.511719 38.511719h36.867187zm0 0" fill="#4ad6ed"/><path d="m253.550781 368.285156c-15.519531 0-28.101562-12.582031-28.101562-28.101562v-20.429688c0-4.234375 3.433593-7.667968 7.671875-7.667968h40.859375c4.238281 0 7.671875 3.433593 7.671875 7.667968v20.429688c-.003906 15.519531-12.582032 28.101562-28.101563 28.101562zm0 0" fill="#57565c"/><path d="m189.527344 340.183594c0-13.183594-13.417969-23.867188-29.972656-23.867188-16.554688 0-29.972657 10.683594-29.972657 23.867188s13.417969 23.871094 29.972657 23.871094c16.554687 0 29.972656-10.6875 29.972656-23.871094zm0 0" fill="#ffa6bb"/><path d="m377.519531 340.183594c0-13.183594-13.417969-23.867188-29.972656-23.867188s-29.972656 10.683594-29.972656 23.867188 13.417969 23.871094 29.972656 23.871094 29.972656-10.6875 29.972656-23.871094zm0 0" fill="#ffa6bb"/><path d="m334.207031 299.632812c-4.140625 0-7.5 3.355469-7.5 7.5v12.449219c0 4.140625 3.359375 7.5 7.5 7.5 4.144531 0 7.5-3.359375 7.5-7.5v-12.449219c0-4.144531-3.355469-7.5-7.5-7.5zm0 0"/><path d="m165.394531 307.132812v12.449219c0 4.140625 3.355469 7.5 7.5 7.5 4.140625 0 7.5-3.359375 7.5-7.5v-12.449219c0-4.144531-3.359375-7.5-7.5-7.5s-7.5 3.355469-7.5 7.5zm0 0"/><path d="m489.992188 69.917969-47.910157-47.910157c-14.191406-14.191406-33.058593-22.007812-53.128906-22.007812h-326.652344c-34.351562 0-62.300781 27.949219-62.300781 62.300781v387.398438c0 34.351562 27.949219 62.300781 62.300781 62.300781h387.398438c34.355469 0 62.300781-27.949219 62.300781-62.300781v-326.652344c0-20.070313-7.816406-38.9375-22.007812-53.128906zm-89.753907-53.855469v114.59375c0 17.101562-13.910156 31.011719-31.011719 31.011719h-182.085937v-146.667969h201.8125c3.828125 0 7.601563.367188 11.285156 1.0625zm96.761719 433.636719c0 26.082031-21.21875 47.300781-47.300781 47.300781h-387.398438c-26.082031 0-47.300781-21.21875-47.300781-47.300781v-387.398438c0-26.082031 21.21875-47.300781 47.300781-47.300781h109.839844v146.667969h-29.371094c-17.097656 0-31.007812-13.910157-31.007812-31.011719v-89.949219c0-4.144531-3.359375-7.5-7.5-7.5s-7.5 3.355469-7.5 7.5v89.949219c0 25.371094 20.640625 46.011719 46.007812 46.011719h226.457031c25.371094 0 46.011719-20.640625 46.011719-46.011719v-109.628906c5.941407 2.894531 11.425781 6.777344 16.234375 11.585937l47.914063 47.910157c11.359375 11.359374 17.613281 26.460937 17.613281 42.523437zm0 0"/><path d="m397.433594 219.417969h-287.765625c-23.730469 0-43.039063 19.304687-43.039063 43.039062v143.003907c0 23.730468 19.304688 43.035156 43.039063 43.035156h217.855469c4.144531 0 7.5-3.355469 7.5-7.5 0-4.140625-3.355469-7.5-7.5-7.5h-217.855469c-15.460938 0-28.039063-12.574219-28.039063-28.035156v-143.003907c0-15.460937 12.578125-28.039062 28.039063-28.039062h287.765625c15.460937 0 28.039062 12.578125 28.039062 28.039062v143.003907c0 15.460937-12.578125 28.035156-28.039062 28.035156h-40.476563c-4.144531 0-7.5 3.359375-7.5 7.5 0 4.144531 3.355469 7.5 7.5 7.5h40.476563c23.730468 0 43.039062-19.304688 43.039062-43.035156v-143.003907c0-23.730469-19.308594-43.039062-43.039062-43.039062zm0 0"/><path d="m233.121094 304.585938c-8.363282 0-15.171875 6.804687-15.171875 15.167968v20.429688c0 19.632812 15.972656 35.601562 35.601562 35.601562 19.628907 0 35.601563-15.96875 35.601563-35.601562v-20.429688c0-8.363281-6.804688-15.167968-15.171875-15.167968zm41.03125 35.597656c-.003906 11.359375-9.242188 20.601562-20.601563 20.601562s-20.601562-9.242187-20.601562-20.601562v-20.429688c0-.09375 41.03125-.167968 41.03125-.167968.09375 0 .171875 20.597656.171875 20.597656zm0 0"/><path d="m328.257812 139.4375c19.78125 0 35.878907-16.09375 35.878907-35.878906v-30.453125c0-19.78125-16.097657-35.875-35.878907-35.875s-35.878906 16.09375-35.878906 35.875v30.457031c0 19.78125 16.097656 35.875 35.878906 35.875zm-20.878906-66.332031c0-11.511719 9.367188-20.875 20.878906-20.875 11.511719 0 20.878907 9.367187 20.878907 20.875v30.457031c0 11.511719-9.367188 20.875-20.878907 20.875-11.511718 0-20.878906-9.363281-20.878906-20.875zm0 0"/></svg>