<?xml version="1.0" encoding="iso-8859-1"?>
<!-- Generator: Adobe Illustrator 19.0.0, SVG Export Plug-In . SVG Version: 6.00 Build 0)  -->
<svg version="1.1" id="Layer_1" xmlns="http://www.w3.org/2000/svg" xmlns:xlink="http://www.w3.org/1999/xlink" x="0px" y="0px"
	 viewBox="0 0 512 512" style="enable-background:new 0 0 512 512;" xml:space="preserve">
<path style="fill:#6699CC;" d="M403.127,276.922c0-23.174-4.061-45.873-12.073-67.468l-0.846-2.28l-36.677,18.414l0.615,1.797
	c5.435,15.921,8.19,32.587,8.19,49.534c0,84.748-68.946,153.694-153.693,153.694c-84.749,0-153.697-68.946-153.697-153.694
	s68.948-153.694,153.697-153.694c34.91,0,69.117,12.084,96.322,34.026l1.519,1.225l29.032-28.853l-1.822-1.532
	c-33.163-27.911-74.8-43.924-117.932-45.516c-0.45-0.017-0.899-0.032-1.349-0.045c-1.921-0.059-3.844-0.098-5.771-0.098
	C101.401,82.436,14.152,169.683,14.152,276.922c0,1.575,0.023,3.146,0.06,4.713c0.013,0.518,0.035,1.032,0.052,1.548
	c0.033,1.048,0.069,2.096,0.119,3.139c0.029,0.613,0.066,1.226,0.102,1.838c0.054,0.944,0.113,1.888,0.18,2.83
	c0.047,0.646,0.098,1.291,0.15,1.935c0.074,0.907,0.156,1.812,0.243,2.715c0.063,0.654,0.125,1.306,0.196,1.958
	c0.096,0.902,0.201,1.802,0.309,2.7c0.076,0.638,0.15,1.276,0.233,1.911c0.124,0.954,0.261,1.903,0.401,2.852
	c0.083,0.569,0.159,1.143,0.247,1.711c0.226,1.461,0.467,2.916,0.726,4.367c0.098,0.554,0.21,1.105,0.314,1.657
	c0.174,0.931,0.348,1.865,0.537,2.792c0.14,0.697,0.294,1.388,0.442,2.084c0.165,0.777,0.332,1.556,0.508,2.33
	c0.165,0.73,0.341,1.46,0.514,2.187c0.175,0.729,0.352,1.458,0.535,2.184c0.188,0.749,0.381,1.493,0.577,2.237
	c0.184,0.698,0.374,1.393,0.567,2.088c0.208,0.757,0.419,1.513,0.638,2.267c0.194,0.671,0.396,1.339,0.598,2.007
	c0.232,0.765,0.459,1.531,0.7,2.292c0.2,0.634,0.409,1.262,0.615,1.892c0.626,1.919,1.277,3.828,1.962,5.72
	c0.061,0.168,0.116,0.337,0.177,0.504c-5.587-6.251-9.957-11.159-9.957-11.159s12.347,39.572,28.563,59.767
	c6.04,7.523,8.436,6.421,9.011,2.043c1.07,1.414,2.161,2.811,3.268,4.196c0.101,0.126,0.204,0.253,0.305,0.379
	c1.031,1.284,2.079,2.553,3.143,3.808c0.112,0.132,0.223,0.265,0.335,0.396c1.138,1.337,2.291,2.657,3.462,3.963
	c0.01,0.01,0.019,0.021,0.026,0.029c3.651,4.061,7.47,7.967,11.447,11.709c0.108,0.102,0.217,0.202,0.324,0.303
	c1.182,1.107,2.378,2.199,3.586,3.276c0.185,0.165,0.37,0.33,0.555,0.493c1.181,1.045,2.375,2.075,3.582,3.092
	c0.159,0.136,0.319,0.272,0.48,0.406c4.144,3.471,8.432,6.772,12.858,9.891c0.118,0.084,0.238,0.164,0.356,0.248
	c1.307,0.918,2.627,1.819,3.957,2.703c0.283,0.189,0.567,0.374,0.851,0.562c1.198,0.789,2.404,1.563,3.619,2.326
	c0.317,0.198,0.634,0.397,0.953,0.594c1.252,0.776,2.516,1.536,3.787,2.285c0.251,0.148,0.502,0.299,0.754,0.446
	c3.107,1.808,6.268,3.537,9.482,5.175c0.086,0.044,0.173,0.085,0.26,0.13c1.461,0.742,2.934,1.465,4.417,2.171
	c0.381,0.182,0.762,0.357,1.143,0.535c1.208,0.567,2.423,1.121,3.644,1.662c0.462,0.206,0.925,0.407,1.388,0.61
	c1.178,0.511,2.363,1.01,3.553,1.499c0.462,0.189,0.922,0.381,1.384,0.567c1.293,0.519,2.594,1.021,3.9,1.513
	c0.346,0.131,0.69,0.268,1.037,0.395c3.33,1.233,6.703,2.377,10.116,3.427c0.443,0.137,0.891,0.266,1.336,0.398
	c1.243,0.373,2.489,0.739,3.743,1.088c0.57,0.16,1.145,0.312,1.718,0.466c1.151,0.309,2.302,0.609,3.461,0.896
	c0.605,0.15,1.211,0.299,1.818,0.444c1.175,0.281,2.356,0.548,3.539,0.806c0.567,0.124,1.134,0.251,1.705,0.372
	c1.395,0.292,2.796,0.564,4.201,0.826c0.352,0.065,0.703,0.139,1.056,0.203c1.765,0.318,3.539,0.613,5.32,0.883
	c0.41,0.062,0.823,0.113,1.233,0.172c1.363,0.198,2.73,0.387,4.102,0.556c0.626,0.077,1.254,0.145,1.882,0.216
	c1.172,0.134,2.348,0.259,3.526,0.372c0.684,0.064,1.367,0.124,2.053,0.182c1.153,0.098,2.308,0.184,3.467,0.26
	c0.678,0.046,1.356,0.091,2.037,0.13c1.24,0.07,2.483,0.121,3.728,0.168c0.591,0.022,1.178,0.051,1.769,0.069
	c1.831,0.051,3.665,0.082,5.507,0.082c2.068,0,4.127-0.044,6.18-0.109c0.245-0.008,0.488-0.019,0.732-0.027
	c1.975-0.07,3.943-0.169,5.903-0.297c0.013-0.001,0.025-0.001,0.038-0.002h-0.003C322.761,464.335,403.127,379.845,403.127,276.922z
	"/>
<path style="fill:#F8981D;" d="M299.083,286.384c0.321-3.111,0.491-6.267,0.491-9.461c0-6.697-0.761-13.455-2.262-20.083
	l-0.613-2.713l-36.897,18.524l0.078,1.427c0.058,1.002,0.085,1.932,0.085,2.846c0,28.3-23.025,51.325-51.325,51.325
	c-28.303,0-51.327-23.024-51.327-51.325S180.337,225.6,208.64,225.6c7.99,0,15.663,1.805,22.807,5.365l1.398,0.697l28.805-28.628
	l-2.193-1.482c-15.052-10.179-32.623-15.559-50.819-15.559c-50.142,0-90.935,40.793-90.935,90.932
	c0,50.143,40.794,90.935,90.935,90.935c29.119,0,55.066-13.774,71.72-35.132c1.008,3.685,3.395,4.497,8.223-0.994
	c15.322-17.429,16.93-51.839,16.93-51.839L299.083,286.384z"/>
<path style="fill:#FFFFFF;" d="M341.451,234.093l-31.279,15.706c2.313,8.656,3.555,17.748,3.555,27.125
	c0,9.273-2.46,3.504-4.727,12.076c-2.146-8.784-3.984-6.206-3.984-6.206s-1.552,33.843-18.235,51.461
	c-11.917,12.586-2.039,4.187,9.283-6.329c-16.57,36.305-44.978,54.087-87.422,54.087c-57.945,0-105.088-47.143-105.088-105.088
	c0-57.944,47.143-105.085,105.088-105.085c22.887,0,44.084,7.358,61.359,19.827l24.682-24.528
	c-23.723-18.631-53.606-29.755-86.04-29.755c-76.945,0-139.545,62.598-139.545,139.541s62.599,139.541,139.545,139.541
	c76.943,0,139.54-62.598,139.54-139.541C348.182,261.986,345.814,247.595,341.451,234.093z"/>
<g>
	<path style="fill:#F04C35;" d="M219.868,241.487c-3.544-1.125-7.316-1.736-11.227-1.736c-20.498,0-37.175,16.675-37.175,37.172
		c0,20.497,16.677,37.173,37.175,37.173c18.668,0,34.159-13.833,36.777-31.786l-27.857,13.987c-1.176,0.591-2.427,0.871-3.657,0.871
		c-2.99,0-5.87-1.649-7.303-4.504c-2.024-4.03-0.397-8.937,3.633-10.959l33.557-16.849c-1.945-5.65-5.215-10.686-9.44-14.739
		l-28.173,27.999c-1.593,1.583-3.675,2.374-5.756,2.374c-2.098,0-4.196-0.803-5.79-2.409c-3.179-3.2-3.163-8.37,0.035-11.546
		L219.868,241.487z"/>
	<path style="fill:#F04C35;" d="M208.641,316.272c-21.7,0-39.352-17.652-39.352-39.35s17.653-39.349,39.352-39.349
		c4.044,0,8.043,0.618,11.886,1.838l3.425,1.086l-27.748,27.579c-1.134,1.127-1.761,2.628-1.767,4.227
		c-0.004,1.6,0.614,3.105,1.742,4.24c1.132,1.14,2.64,1.767,4.246,1.767c1.593,0,3.092-0.618,4.221-1.742l29.682-29.497l1.534,1.471
		c4.512,4.328,7.967,9.724,9.99,15.601l0.619,1.801l-35.259,17.702c-1.429,0.717-2.494,1.949-2.997,3.467
		c-0.503,1.519-0.385,3.141,0.333,4.57c1.022,2.038,3.075,3.303,5.357,3.303c0.934,0,1.837-0.214,2.679-0.639l31.594-15.862
		l-0.603,4.135C244.776,301.806,228.039,316.272,208.641,316.272z M208.641,241.928c-19.298,0-34.998,15.699-34.998,34.994
		c0,19.295,15.7,34.996,34.998,34.996c15.772,0,29.566-10.755,33.716-25.636l-23.82,11.959c-1.454,0.732-3.014,1.103-4.634,1.103
		c-3.938,0-7.482-2.186-9.248-5.703c-1.241-2.469-1.445-5.273-0.575-7.895c0.869-2.621,2.707-4.748,5.177-5.988l31.809-15.97
		c-1.582-3.883-3.876-7.487-6.733-10.584l-26.618,26.455c-1.951,1.938-4.541,3.007-7.291,3.007c-2.774,0-5.379-1.083-7.334-3.051
		c-1.948-1.961-3.016-4.561-3.008-7.323c0.009-2.763,1.093-5.356,3.051-7.304l22.496-22.356
		C213.335,242.164,210.997,241.928,208.641,241.928z"/>
</g>
<g>
	<polygon style="fill:#485D6D;" points="398.167,101.595 423.829,76.092 412.712,73.237 387.051,98.738 	"/>
	<path style="fill:#485D6D;" d="M398.824,104.011l-16.026-4.117l29.257-29.073l16.024,4.116L398.824,104.011z M391.301,97.582
		l6.209,1.596l22.067-21.931l-6.206-1.595L391.301,97.582z"/>
	<polygon style="fill:#485D6D;" points="401.124,61.352 398.413,50.518 372.752,76.019 375.462,86.855 	"/>
	<path style="fill:#485D6D;" d="M374.28,91.098l-3.942-15.75l29.257-29.074l3.942,15.75L374.28,91.098z M375.163,76.692l1.482,5.919
		l22.069-21.931l-1.482-5.919L375.163,76.692z"/>
</g>
<g>
	<polygon style="fill:#F04C35;" points="445.331,182.234 455.004,188.413 487.336,172.178 477.663,166 	"/>
	<path style="fill:#F04C35;" d="M454.876,190.915l-13.944-8.908l36.86-18.508l13.944,8.906L454.876,190.915z M449.733,182.461
		l5.401,3.45l27.803-13.96l-5.401-3.45L449.733,182.461z"/>
</g>
<g>
	<path style="fill:#F8981D;" d="M290.057,241.625c-4.565-10.49-11.094-19.931-19.132-27.857l-24.994,24.841
		c5.427,5.283,9.735,11.704,12.541,18.875L290.057,241.625z"/>
	<path style="fill:#F8981D;" d="M257.315,260.5l-0.872-2.224c-2.645-6.758-6.805-13.02-12.032-18.109l-1.585-1.544l28.092-27.92
		l1.535,1.514c8.346,8.231,14.939,17.832,19.6,28.539l0.821,1.889L257.315,260.5z M249.004,238.625
		c4.391,4.633,8,10.049,10.577,15.865l27.635-13.875c-4.076-8.792-9.547-16.769-16.305-23.765L249.004,238.625z"/>
</g>
<g>
	<polygon style="fill:#F04C35;" points="471.158,139.956 438.827,156.189 438.026,167.331 470.357,151.099 	"/>
	<path style="fill:#F04C35;" d="M435.581,170.997l1.163-16.198l36.86-18.507l-1.163,16.198L435.581,170.997z M440.908,157.579
		l-0.435,6.088l27.803-13.959l0.435-6.088L440.908,157.579z"/>
</g>
<g>
	<path style="fill:#6699CC;" d="M350.089,211.483l32.572-16.353c-9.579-20.298-22.596-38.664-38.31-54.332l-25.836,25.675
		C331.528,179.417,342.267,194.64,350.089,211.483z"/>
	<path style="fill:#6699CC;" d="M349.061,214.436l-0.944-2.036c-7.687-16.544-18.163-31.477-31.137-44.384l-1.552-1.545
		l28.925-28.746l1.535,1.531c16.057,16.011,29.094,34.497,38.743,54.945l0.908,1.921L349.061,214.436z M321.594,166.483
		c12.105,12.374,22.022,26.504,29.512,42.053l28.671-14.395c-9.024-18.583-20.931-35.475-35.436-50.264L321.594,166.483z"/>
</g>
<path style="fill:#202121;" d="M508.23,166.149l-13.843-8.843l1.243-0.624c4.03-2.023,5.657-6.929,3.633-10.959
	c-2.023-4.03-6.929-5.661-10.959-3.633l-0.96,0.482l1.132-15.771c0.21-2.928-1.168-5.745-3.61-7.376
	c-2.442-1.629-5.572-1.823-8.196-0.506l-49.317,24.759c-2.571,1.292-4.274,3.842-4.48,6.713l-1.829,25.47l-23.784,11.941
	c-10.364-21.846-24.404-41.621-41.331-58.509l17.342-17.234l25.329,6.509c0.672,0.173,1.354,0.257,2.031,0.257
	c2.129,0,4.207-0.835,5.756-2.374l39.14-38.899c2.083-2.07,2.894-5.099,2.123-7.933c-0.771-2.834-3.004-5.035-5.847-5.765
	l-15.913-4.088l0.987-0.981c3.198-3.178,3.214-8.348,0.035-11.546c-3.179-3.197-8.349-3.213-11.547-0.035l-0.761,0.757l-3.84-15.338
	c-0.713-2.849-2.901-5.096-5.731-5.883c-2.829-0.787-5.862,0.004-7.946,2.075l-39.14,38.898c-2.041,2.028-2.863,4.982-2.164,7.774
	l6.2,24.769l-18.073,17.962c-36.451-31.113-83.701-49.93-135.269-49.93C93.596,68.283,0,161.878,0,276.922
	c0,27.194,5.155,53.646,15.323,78.619c1.7,4.176,6.467,6.182,10.64,4.483c4.176-1.7,6.183-6.464,4.483-10.64
	c-9.367-23.009-14.116-47.387-14.116-72.461c0-106.039,86.271-192.309,192.311-192.309c47.047,0,90.193,16.992,123.649,45.148
	l-25.96,25.799c-26.746-21.571-60.732-34.508-97.688-34.508c-85.95,0-155.874,69.922-155.874,155.871
	s69.925,155.871,155.874,155.871c85.947,0,155.87-69.922,155.87-155.871c0-17.57-2.925-34.468-8.309-50.238l32.808-16.472
	c7.715,20.792,11.938,43.266,11.938,66.71c0,106.039-86.27,192.308-192.309,192.308c-68.74,0-132.711-37.086-166.947-96.786
	c-2.243-3.911-7.232-5.264-11.144-3.02c-3.911,2.244-5.265,7.233-3.021,11.144c17.965,31.327,43.891,57.612,74.974,76.013
	c32.024,18.958,68.725,28.978,106.138,28.978c115.043,0,208.639-93.595,208.639-208.637c0-26.076-4.823-51.043-13.599-74.075
	l24.406-12.254l22.04,14.078c1.336,0.852,2.863,1.285,4.395,1.285c1.252,0,2.508-0.288,3.663-0.869l49.314-24.762
	c2.625-1.317,4.338-3.943,4.491-6.875C512.14,170.517,510.706,167.73,508.23,166.149z M398.168,101.595l-11.118-2.857l25.661-25.501
	l11.115,2.856L398.168,101.595z M372.752,76.02l25.66-25.503l2.713,10.834l-25.661,25.503L372.752,76.02z M348.182,276.922
	c0,76.943-62.598,139.541-139.54,139.541c-76.945,0-139.545-62.598-139.545-139.541s62.599-139.541,139.545-139.541
	c32.434,0,62.318,11.124,86.04,29.756l-24.681,24.528c-17.277-12.469-38.474-19.827-61.359-19.827
	c-57.945,0-105.088,47.142-105.088,105.085c0,57.946,47.143,105.088,105.088,105.088c39.307,0,75.028-21.665,93.222-56.542
	c2.086-3.997,0.536-8.929-3.463-11.015c-3.996-2.086-8.929-0.536-11.015,3.463c-15.371,29.462-45.544,47.765-78.745,47.765
	c-48.941,0-88.758-39.817-88.758-88.758c0-48.94,39.817-88.755,88.758-88.755c18.357,0,35.43,5.602,49.6,15.186l-25.822,25.662
	c-7.169-3.572-15.24-5.593-23.778-5.593c-29.502,0-53.505,24.001-53.505,53.502c0,29.501,24.002,53.502,53.505,53.502
	c29.501,0,53.502-24.001,53.502-53.502c0-0.996-0.033-1.985-0.086-2.969l33.132-16.634c1.429,6.311,2.209,12.866,2.209,19.603
	c0,5.578-0.519,11.163-1.547,16.599c-0.836,4.431,2.077,8.702,6.509,9.539c4.432,0.84,8.702-2.077,9.539-6.509
	c1.214-6.433,1.83-13.038,1.83-19.628c0-9.376-1.241-18.468-3.557-27.125l31.279-15.705
	C345.814,247.595,348.182,261.986,348.182,276.922z M335.492,218.812l-30.814,15.471c-5.364-12.034-12.923-22.88-22.169-32.028
	l24.429-24.278C318.739,189.702,328.457,203.517,335.492,218.812z M206.601,292.662c1.433,2.854,4.313,4.504,7.304,4.504
	c1.231,0,2.482-0.28,3.657-0.871l27.858-13.987c-2.617,17.954-18.11,31.787-36.778,31.787c-20.499,0-37.175-16.675-37.175-37.173
	s16.677-37.173,37.175-37.173c3.913,0,7.683,0.612,11.227,1.736l-25.2,25.044c-3.198,3.178-3.215,8.348-0.036,11.546
	c1.596,1.606,3.694,2.409,5.792,2.409c2.081,0,4.163-0.791,5.756-2.374l28.174-27.999c4.225,4.053,7.494,9.089,9.44,14.739
	L210.236,281.7C206.204,283.725,204.577,288.631,206.601,292.662z M245.93,238.608l24.995-24.841
	c8.035,7.925,14.565,17.367,19.131,27.857l-31.585,15.858C255.665,250.311,251.357,243.89,245.93,238.608z M350.089,211.484
	c-7.823-16.842-18.562-32.066-31.574-45.011l25.835-25.675c15.716,15.668,28.734,34.034,38.312,54.332L350.089,211.484z
	 M438.827,156.189l32.332-16.233l-0.8,11.142l-32.332,16.233L438.827,156.189z M455.005,188.413l-9.673-6.179L477.664,166
	l9.672,6.178L455.005,188.413z"/>
<path style="fill:#FFFFFF;" d="M335.493,218.812c-7.036-15.295-16.755-29.109-28.555-40.834l-24.428,24.278
	c9.245,9.148,16.806,19.994,22.17,32.028L335.493,218.812z"/>
<g style="opacity:0.19;">
	<path style="fill:#202121;" d="M39.855,276.922c0-102.937,80.39-187.436,181.682-194.054c-4.283-0.287-8.584-0.432-12.896-0.432
		c-107.24,0-194.488,87.247-194.488,194.486c0,23.33,4.132,45.711,11.699,66.456c-5.587-6.251-9.957-11.159-9.957-11.159
		s12.347,39.572,28.563,59.767c6.04,7.523,8.436,6.421,9.011,2.043C89.005,441,145.335,471.407,208.64,471.407
		c4.32,0,8.601-0.157,12.853-0.434C120.222,464.333,39.855,379.845,39.855,276.922z"/>
</g>
<g>
</g>
<g>
</g>
<g>
</g>
<g>
</g>
<g>
</g>
<g>
</g>
<g>
</g>
<g>
</g>
<g>
</g>
<g>
</g>
<g>
</g>
<g>
</g>
<g>
</g>
<g>
</g>
<g>
</g>
</svg>
